<?xml version="1.0" encoding="UTF-8" standalone="no"?>
<!DOCTYPE svg PUBLIC "-//W3C//DTD SVG 1.1//EN" "http://www.w3.org/Graphics/SVG/1.1/DTD/svg11.dtd">

<!-- Created with Vectornator (http://vectornator.io/) -->
<svg height="100%" stroke-miterlimit="10" style="fill-rule:nonzero;clip-rule:evenodd;stroke-linecap:round;stroke-linejoin:round;" version="1.1" viewBox="0 0 1294.26 520.127" width="100%" xml:space="preserve" xmlns="http://www.w3.org/2000/svg" xmlns:vectornator="http://vectornator.io" xmlns:xlink="http://www.w3.org/1999/xlink">
<metadata>
<vectornator:setting key="IsTimeLapseWatermarkDisabled" value="false"/>
<vectornator:setting key="UndoHistoryDisabled" value="true"/>
<vectornator:setting key="VNDimensionsVisible" value="true"/>
<vectornator:setting key="VNSnapToGuides" value="false"/>
<vectornator:setting key="WDCMYKEnabledKey" value="true"/>
<vectornator:setting key="WDDisplayWhiteBackground" value="false"/>
<vectornator:setting key="WDDynamicGuides" value="false"/>
<vectornator:setting key="WDGuidesVisible" value="true"/>
<vectornator:setting key="WDIsolateActiveLayer" value="false"/>
<vectornator:setting key="WDOutlineMode" value="false"/>
<vectornator:setting key="WDRulersVisible" value="true"/>
<vectornator:setting key="WDSnapToEdges" value="false"/>
<vectornator:setting key="WDSnapToGrid" value="false"/>
<vectornator:setting key="WDSnapToPoints" value="false"/>
<vectornator:setting key="WDUnits" value="Centimeters"/>
</metadata>
<defs>
<clipPath id="TextBounds">
<rect height="648.847" width="1957.12" x="-609.314" y="97.2635"/>
</clipPath>
<clipPath id="TextBounds_2">
<rect height="81.0764" width="83.9505" x="2754.66" y="941.648"/>
</clipPath>
<clipPath id="TextBounds_3">
<rect height="12.9252" width="214.378" x="752.851" y="1889.89"/>
</clipPath>
<clipPath id="TextBounds_4">
<rect height="375.776" width="180.636" x="2108.83" y="2297.42"/>
</clipPath>
<clipPath id="TextBounds_5">
<rect height="4.34419" width="78.1" x="811.499" y="2755.13"/>
</clipPath>
<clipPath id="TextBounds_6">
<rect height="3.06955" width="64.3" x="2470.37" y="1403.93"/>
</clipPath>
</defs>
<g id="Layer-1" vectornator:layerName="Layer 1">
<path d="M77.4661 61.2289C77.4661 61.0221 72.1112 70.7677 79.6711 77.2398C87.2311 83.712 105.911 82.5809 105.873 82.3105L116.732 76.7203C118.915 75.6465 105.947 50.5214 120.504 43.4466C112.948 42.896 112.653 43.1246 77.4661 61.2289Z" fill="#771919" fill-opacity="0.997748" fill-rule="evenodd" opacity="1" stroke="none"/>
<path d="M196.688 37.4851C204.022 33.9575 212.032 35.3557 214.574 40.6084C217.116 45.8612 213.23 52.9809 205.895 56.5084L229.625 45.0951C236.959 41.5676 240.846 34.4479 238.303 29.1951C235.761 23.9424 227.752 22.5442 220.418 26.0718L196.688 37.4851Z" fill="#771919" fill-opacity="0.997748" fill-rule="evenodd" opacity="1" stroke="none"/>
<path d="M205.619 125.059C212.991 121.458 221.016 122.844 223.546 128.151C226.076 133.459 222.153 140.68 214.78 144.281L238.391 132.749C245.764 129.148 249.686 121.927 247.157 116.619C244.627 111.312 236.602 109.926 229.23 113.527L205.619 125.059Z" fill="#771919" fill-opacity="0.997748" fill-rule="evenodd" opacity="1" stroke="none"/>
<path d="M230.356 67.3661C238.957 63.1479 247.975 63.9499 250.489 69.1595C253.004 74.3692 248.065 82.0152 239.463 86.2334L262.74 74.8187C271.342 70.6006 276.281 62.9545 273.766 57.7448C271.252 52.5352 262.234 51.7332 253.633 55.9515L230.356 67.3661Z" fill="#771919" fill-opacity="0.997748" fill-rule="evenodd" opacity="1" stroke="none"/>
<path d="M71.6319 213.365C76.5853 210.831 81.9567 213.657 90.2176 209.671C98.4786 205.685 99.3537 200.656 105.265 197.19C109.594 204.937 110.802 210.784 112.977 215.795C108.998 217.39 102.887 214.822 94.6257 218.807C86.3647 222.793 86.2828 228.489 80.4756 231.695C77.04 224.354 80.8265 231.511 71.6319 213.365Z" fill="#771919" fill-opacity="0.997748" fill-rule="evenodd" opacity="1" stroke="none"/>
<path d="M260.302 53.2235L261.689 52.5543L261.689 52.5543L260.302 53.2235Z" fill="#ce2c2c" fill-rule="evenodd" opacity="1" stroke="none"/>
<path d="M238.865 69.2055C238.799 69.0698 238.603 68.6626 238.668 68.7983" fill="#ce2c2c" fill-rule="evenodd" opacity="1" stroke="none"/>
<path d="M237.876 5.78371C193.689 5.2156 134.805 31.6836 101.904 48.3206C88.6727 55.0112 79.6435 60.1119 77.4625 61.2247C95.1727 66.7144 102.117 77.8366 105.872 82.2744L206.634 32.713C213.802 29.1869 221.672 30.4913 224.205 35.6415C226.738 40.7916 222.97 47.8242 215.801 51.3503L40.4744 136.738C33.2794 140.209 29.4655 147.214 31.9595 152.383C34.4535 157.552 42.3196 158.926 49.5145 155.455L242.094 61.6C250.665 57.384 259.678 58.1369 262.211 63.287C264.745 68.4371 259.832 76.0373 251.261 80.2531L19.036 193.223C12.007 196.614 8.30164 203.472 10.7439 208.533C13.1861 213.595 20.856 214.949 27.8851 211.557L222.9 116.795C230.142 113.233 238.065 114.526 240.598 119.676C243.131 124.826 239.309 131.886 232.067 135.449L106.238 196.66C100.553 199.403 97.9388 205.732 100.381 210.793C102.823 215.855 109.402 217.738 115.087 214.995L145.289 200.362L146.911 199.576C141.543 258.615 123.508 297.97 35.8111 425.782C18.5282 450.971-9.16463 512.15 10.8394 505.233C73.492 401.72 151.956 276.393 193.599 228.905C240.034 175.954 314.747 95.8756 306.505 47.0886C301.886 19.7464 262.501 6.1003 237.876 5.78371Z" fill="#ce2c2c" fill-rule="evenodd" opacity="1" stroke="none"/>
<path d="M66.762 227.014C64.3199 221.953 66.4434 215.87 71.505 213.427C76.5666 210.985 82.6496 213.109 85.0917 218.17C87.5339 223.232 85.4104 229.315 80.3487 231.757C79.6857 232.077 79.0052 232.319 78.3177 232.486C73.756 233.593 68.8843 231.413 66.762 227.014Z" fill="#ce2c2c" fill-rule="evenodd" opacity="1" stroke="none"/>
<path d="M81.2469 217.494C81.2469 217.494 81.2875 217.474 81.3375 217.45C81.3875 217.426 81.4281 217.406 81.4281 217.406C81.4281 217.406 81.3875 217.426 81.3375 217.45C81.2875 217.474 81.2469 217.494 81.2469 217.494Z" fill="#ce2c2c" fill-rule="evenodd" opacity="1" stroke="none"/>
<g fill="#ce2c2c" opacity="1" stroke="none">
<path clip-path="url(#TextBounds)" d="M202.934 337.105L204.203 337.105C206.177 330.055 209.773 323.428 214.99 317.224C220.207 311.02 226.552 305.662 234.025 301.15C241.498 296.638 249.817 293.183 258.982 290.786C268.147 288.389 277.664 287.332 287.534 287.614L287.534 303.688C279.074 302.56 269.416 303.406 258.559 306.226C247.702 309.046 237.338 315.25 227.468 324.838C223.52 329.068 220.066 333.157 217.105 337.105C214.144 341.053 211.676 345.424 209.702 350.218C207.728 355.012 206.177 360.37 205.049 366.292C203.921 372.214 203.216 379.264 202.934 387.442L202.934 506.305L186.86 506.305L186.86 288.883L202.934 288.883L202.934 337.105Z" fill-rule="evenodd"/>
<path clip-path="url(#TextBounds)" d="M294.302 397.594C294.302 382.084 296.488 367.49 300.859 353.813C305.23 340.136 311.645 328.081 320.105 317.647C328.565 307.213 338.999 298.964 351.407 292.901C363.815 286.838 378.056 283.807 394.13 283.807C410.204 283.807 424.445 286.838 436.853 292.901C449.261 298.964 459.695 307.213 468.155 317.647C476.615 328.081 483.031 340.136 487.402 353.813C491.773 367.49 493.958 382.084 493.958 397.594C493.958 413.104 491.773 427.768 487.402 441.586C483.031 455.404 476.615 467.459 468.155 477.752C459.695 488.045 449.261 496.223 436.853 502.286C424.445 508.349 410.204 511.381 394.13 511.381C378.056 511.381 363.815 508.349 351.407 502.286C338.999 496.223 328.565 488.045 320.105 477.752C311.645 467.459 305.23 455.404 300.859 441.586C296.488 427.768 294.302 413.104 294.302 397.594ZM310.376 397.594C310.376 410.566 312.209 423.044 315.875 435.029C319.541 447.014 324.899 457.66 331.949 466.966C338.999 476.272 347.741 483.674 358.175 489.173C368.609 494.672 380.594 497.422 394.13 497.422C407.666 497.422 419.651 494.672 430.085 489.173C440.519 483.674 449.261 476.272 456.311 466.966C463.361 457.66 468.719 447.014 472.385 435.029C476.051 423.044 477.884 410.566 477.884 397.594C477.884 384.622 476.051 372.143 472.385 360.158C468.719 348.173 463.361 337.528 456.311 328.222C449.261 318.916 440.519 311.513 430.085 306.014C419.651 300.515 407.666 297.766 394.13 297.766C380.594 297.766 368.609 300.515 358.175 306.014C347.741 311.513 338.999 318.916 331.949 328.222C324.899 337.528 319.541 348.173 315.875 360.158C312.209 372.143 310.376 384.622 310.376 397.594Z" fill-rule="evenodd"/>
<path clip-path="url(#TextBounds)" d="M603.092 478.81C603.092 485.296 604.643 489.596 607.745 491.711C610.847 493.826 614.654 494.884 619.166 494.884C621.704 494.884 624.595 494.743 627.838 494.461C631.081 494.179 633.83 493.756 636.086 493.192L636.086 507.151C633.548 507.715 630.164 508.138 625.934 508.42C621.704 508.702 618.179 508.843 615.359 508.843C596.465 508.843 587.018 498.973 587.018 479.233L587.018 302.842L511.301 302.842L511.301 288.883L681.77 288.883L681.77 302.842L603.092 302.842L603.092 478.81Z" fill-rule="evenodd"/>
<path clip-path="url(#TextBounds)" d="M749.45 394.21C741.272 393.082 734.363 390.755 728.723 387.23C723.083 383.705 718.501 379.546 714.976 374.752C711.451 369.958 708.842 364.811 707.15 359.312C705.458 353.813 704.612 348.385 704.612 343.027C704.612 332.593 706.798 323.639 711.169 316.166C715.54 308.693 721.321 302.56 728.512 297.766C735.703 292.972 744.092 289.447 753.68 287.191C763.268 284.935 773.42 283.807 784.136 283.807C803.876 283.807 820.373 287.755 833.627 295.651C846.881 303.547 855.623 316.801 859.853 335.413L844.202 335.413C841.1 323.569 834.967 314.333 825.802 307.706C816.637 301.079 802.748 297.766 784.136 297.766C775.958 297.766 768.062 298.471 760.448 299.881C752.834 301.291 746.066 303.688 740.144 307.072C734.222 310.456 729.499 315.038 725.974 320.819C722.449 326.6 720.686 333.862 720.686 342.604C720.686 349.936 722.026 356.422 724.705 362.062C727.384 367.702 731.05 372.425 735.703 376.232C740.356 380.039 745.714 382.93 751.777 384.904C757.84 386.878 764.396 387.865 771.446 387.865L800.633 387.865L800.633 401.824L772.292 401.824C754.526 401.824 740.285 405.772 729.569 413.668C718.853 421.564 713.495 432.985 713.495 447.931C713.495 456.673 715.258 464.146 718.783 470.35C722.308 476.554 727.102 481.7 733.165 485.789C739.228 489.878 746.348 492.839 754.526 494.672C762.704 496.505 771.587 497.422 781.175 497.422C789.917 497.422 798.166 496.717 805.921 495.307C813.676 493.897 820.726 491.429 827.071 487.904C833.416 484.379 838.985 479.374 843.779 472.888C848.573 466.402 852.239 458.083 854.777 447.931L870.428 447.931C865.352 470.491 854.989 486.706 839.338 496.576C823.687 506.446 804.299 511.381 781.175 511.381C770.177 511.381 759.602 510.253 749.45 507.997C739.298 505.741 730.345 502.145 722.59 497.21C714.835 492.275 708.701 485.789 704.189 477.752C699.677 469.715 697.421 459.775 697.421 447.931C697.421 434.395 701.863 422.762 710.746 413.033C719.629 403.304 732.53 397.312 749.45 395.056L749.45 394.21ZM749.45 395.056L749.45 394.21L749.45 395.056Z" fill-rule="evenodd"/>
<path clip-path="url(#TextBounds)" d="M1076.85 506.305L1060.78 506.305L1060.78 459.775L1059.93 459.775C1057.11 467.953 1053.09 475.214 1047.88 481.559C1042.66 487.904 1036.6 493.333 1029.69 497.845C1022.78 502.357 1015.24 505.741 1007.06 507.997C998.879 510.253 990.56 511.381 982.1 511.381C969.41 511.381 958.624 509.83 949.741 506.728C940.858 503.626 933.596 499.537 927.956 494.461C922.316 489.385 917.875 483.674 914.632 477.329C911.389 470.984 909.062 464.569 907.652 458.083C906.242 451.597 905.396 445.322 905.114 439.259C904.832 433.196 904.691 427.909 904.691 423.397L904.691 288.883L920.765 288.883L920.765 426.358C920.765 431.998 921.188 438.836 922.034 446.873C922.88 454.91 925.348 462.665 929.437 470.138C933.526 477.611 939.659 484.027 947.837 489.385C956.015 494.743 967.577 497.422 982.523 497.422C994.649 497.422 1005.58 495.166 1015.31 490.654C1025.03 486.142 1033.28 479.867 1040.05 471.83C1046.82 463.793 1051.97 454.205 1055.49 443.066C1059.02 431.927 1060.78 419.731 1060.78 406.477L1060.78 288.883L1076.85 288.883L1076.85 506.305Z" fill-rule="evenodd"/>
<path clip-path="url(#TextBounds)" d="M1131.84 433.972C1132.41 444.124 1134.66 453.077 1138.61 460.832C1142.56 468.587 1147.7 475.214 1154.05 480.713C1160.39 486.212 1167.8 490.372 1176.26 493.192C1184.72 496.012 1193.88 497.422 1203.75 497.422C1210.8 497.422 1218.35 496.787 1226.38 495.518C1234.42 494.249 1241.89 491.923 1248.8 488.539C1255.71 485.155 1261.42 480.431 1265.93 474.368C1270.45 468.305 1272.7 460.621 1272.7 451.315C1272.7 439.189 1269.04 430.024 1261.7 423.82C1254.37 417.616 1245.14 412.822 1234 409.438C1222.86 406.054 1210.87 403.304 1198.04 401.189C1185.21 399.074 1173.23 395.902 1162.09 391.672C1150.95 387.442 1141.71 381.449 1134.38 373.694C1127.05 365.939 1123.38 354.589 1123.38 339.643C1123.38 328.927 1125.78 319.973 1130.57 312.782C1135.37 305.591 1141.5 299.881 1148.97 295.651C1156.45 291.421 1164.84 288.389 1174.14 286.556C1183.45 284.723 1192.75 283.807 1202.06 283.807C1213.34 283.807 1223.92 285.076 1233.79 287.614C1243.66 290.152 1252.19 294.241 1259.38 299.881C1266.57 305.521 1272.21 312.712 1276.3 321.454C1280.39 330.196 1282.43 340.771 1282.43 353.179L1266.36 353.179C1266.36 343.309 1264.73 334.849 1261.49 327.799C1258.25 320.749 1253.74 315.038 1247.96 310.667C1242.17 306.296 1235.34 303.053 1227.44 300.938C1219.54 298.823 1211.08 297.766 1202.06 297.766C1194.73 297.766 1187.33 298.471 1179.85 299.881C1172.38 301.291 1165.68 303.688 1159.76 307.072C1153.84 310.456 1148.97 314.827 1145.17 320.185C1141.36 325.543 1139.46 332.029 1139.46 339.643C1139.46 348.385 1141.57 355.435 1145.8 360.793C1150.03 366.151 1155.6 370.451 1162.51 373.694C1169.42 376.937 1177.17 379.546 1185.77 381.52C1194.38 383.494 1203.05 385.468 1211.79 387.442C1222.51 389.416 1232.59 391.742 1242.03 394.421C1251.48 397.1 1259.66 400.766 1266.57 405.419C1273.48 410.072 1278.91 416.065 1282.85 423.397C1286.8 430.729 1288.78 440.035 1288.78 451.315C1288.78 463.159 1286.1 472.888 1280.74 480.502C1275.38 488.116 1268.61 494.249 1260.43 498.902C1252.26 503.555 1243.16 506.798 1233.15 508.631C1223.14 510.464 1213.34 511.381 1203.75 511.381C1191.34 511.381 1179.85 509.759 1169.28 506.516C1158.7 503.273 1149.47 498.338 1141.57 491.711C1133.68 485.084 1127.47 476.977 1122.96 467.389C1118.45 457.801 1116.05 446.662 1115.77 433.972L1131.84 433.972Z" fill-rule="evenodd"/>
</g>
<g fill="#ce2c2c" opacity="1" stroke="none">
<path clip-path="url(#TextBounds_2)" d="M2894.88 1453.71C2896.4 1427.42 2897.15 1360 2897.15 1251.44C2897.15 1193.38 2896.4 1153.66 2894.88 1132.29C2827.74 1135.13 2789.82 1136.54 2781.12 1136.54C2772.8 1136.54 2767.03 1135.22 2763.82 1132.57C2760.6 1129.92 2759 1124.91 2759 1117.54C2759 1106.95 2761.64 1095.41 2766.94 1082.93C2799.09 1091.44 2845.71 1095.69 2906.8 1095.69L3084.11 1095.69C3092.43 1095.69 3098.24 1097.06 3101.55 1099.81C3104.86 1102.55 3106.52 1107.51 3106.52 1114.7C3106.52 1127.94 3102.64 1140.52 3094.89 1152.43C3063.3 1139 3022.26 1132.29 2971.76 1132.29L2962.12 1132.29C2960.61 1153.66 2959.85 1194.51 2959.85 1254.84C2959.85 1361.13 2960.61 1427.42 2962.12 1453.71L3002.69 1453.71C3004.96 1459.38 3006.09 1464.87 3006.09 1470.17C3006.09 1474.89 3005.14 1478.2 3003.25 1480.09C3001.36 1481.99 2998.05 1482.93 2993.32 1482.93L2854.32 1482.93C2851.86 1476.5 2850.63 1470.54 2850.63 1465.06C2850.63 1461.09 2851.62 1458.2 2853.61 1456.41C2855.59 1454.61 2858.85 1453.71 2863.39 1453.71L2894.88 1453.71Z" fill-rule="evenodd"/>
<path clip-path="url(#TextBounds_2)" d="M2905.66 1907.62C2886.75 1907.62 2872.38 1914.38 2862.54 1927.9C2852.71 1941.42 2847.32 1962.56 2846.37 1991.31L2875.59 1991.31C2906.61 1991.31 2927.74 1990.69 2939 1989.46C2950.25 1988.23 2956.78 1986.2 2958.57 1983.36C2960.37 1980.53 2961.27 1975.23 2961.27 1967.48C2961.27 1948.75 2956.54 1934.1 2947.08 1923.5C2937.63 1912.91 2923.82 1907.62 2905.66 1907.62ZM2916.44 1869.6C2951.62 1869.6 2977.72 1877.92 2994.74 1894.57C3011.76 1911.21 3020.27 1938.63 3020.27 1976.84C3020.27 1993.67 3017.25 2005.4 3011.2 2012.02C3005.14 2018.64 2991.91 2021.94 2971.48 2021.94L2846.09 2021.94C2846.47 2052.77 2852.66 2076.98 2864.67 2094.57C2876.68 2112.16 2897.91 2120.95 2928.36 2120.95C2956.73 2120.95 2983.11 2113.58 3007.51 2098.83C3015.64 2106.96 3019.71 2115.56 3019.71 2124.64C3019.71 2137.31 3009.26 2146.2 2988.36 2151.31C2967.46 2156.41 2943.87 2158.97 2917.58 2158.97C2869.16 2158.97 2834.41 2148.71 2813.32 2128.19C2792.23 2107.67 2781.69 2073.1 2781.69 2024.5C2781.69 1976.65 2793.56 1938.87 2817.29 1911.16C2841.03 1883.46 2874.08 1869.6 2916.44 1869.6Z" fill-rule="evenodd"/>
<path clip-path="url(#TextBounds_2)" d="M2795.87 2797.27C2810.82 2776.09 2836.63 2738.64 2873.32 2684.93C2849.68 2648.24 2833.89 2624.13 2825.95 2612.59C2818 2601.05 2811.67 2592.73 2806.94 2587.63C2802.21 2582.52 2797.67 2579.35 2793.32 2578.12C2788.97 2576.89 2783.96 2576.28 2778.29 2576.28C2775.83 2572.31 2774.6 2567.2 2774.6 2560.96C2774.6 2554.15 2778.76 2549.89 2787.08 2548.19C2795.4 2546.49 2810.15 2545.64 2831.34 2545.64C2837.96 2545.64 2844.62 2546.54 2851.34 2548.33C2858.05 2550.13 2863.02 2553.58 2866.23 2558.69C2869.45 2563.8 2874.84 2574.29 2882.4 2590.18C2889.97 2606.07 2903.3 2629.23 2922.4 2659.68C2944.91 2626.02 2960.23 2599.64 2968.36 2580.53L2955.31 2580.53C2952.85 2575.05 2951.62 2569.47 2951.62 2563.8C2951.62 2558.12 2952.71 2554.15 2954.88 2551.88C2957.06 2549.61 2960.7 2548.48 2965.81 2548.48L3038.71 2548.48C3040.98 2553.77 3042.12 2559.45 3042.12 2565.5C3042.12 2571.36 3040.94 2575.33 3038.57 2577.41C3036.21 2579.49 3031.91 2580.53 3025.66 2580.53L3021.41 2580.53C2998.34 2610.6 2973.37 2645.97 2946.52 2686.63C2985.29 2746.02 3008.22 2779.31 3015.31 2786.49C3022.4 2793.68 3030.77 2797.27 3040.42 2797.27C3042.5 2800.87 3043.54 2805.31 3043.54 2810.61C3043.54 2817.42 3041.03 2821.77 3036.02 2823.66C3031.01 2825.55 3022.92 2826.49 3011.76 2826.49C2992.09 2826.49 2979.61 2825.97 2974.32 2824.93C2969.02 2823.89 2964.67 2821.29 2961.27 2817.13C2957.86 2812.97 2936.4 2777.89 2896.87 2711.88C2873.04 2748.01 2857.15 2776.47 2849.21 2797.27L2868.78 2797.27C2871.05 2802.19 2872.19 2807.49 2872.19 2813.16C2872.19 2818.27 2871.15 2821.77 2869.07 2823.66C2866.99 2825.55 2863.02 2826.49 2857.15 2826.49L2775.45 2826.49C2772.99 2820.44 2771.76 2814.77 2771.76 2809.47C2771.76 2805.31 2772.8 2802.24 2774.88 2800.25C2776.96 2798.27 2780.37 2797.27 2785.09 2797.27L2795.87 2797.27Z" fill-rule="evenodd"/>
<path clip-path="url(#TextBounds_2)" d="M2812.61 3220.26L2835.59 3139.69C2843.54 3142.15 2850.3 3145.08 2855.88 3148.48C2861.45 3151.89 2865.57 3155.91 2868.22 3160.54C2870.86 3165.17 2872.19 3181.2 2872.19 3208.63L2872.19 3220.26L2965.52 3220.26C2967.79 3226.5 2968.93 3233.12 2968.93 3240.12C2968.93 3245.6 2967.89 3249.24 2965.81 3251.04C2963.73 3252.83 2959.56 3253.73 2953.32 3253.73L2872.19 3253.73L2872.19 3387.92C2872.19 3419.88 2875.12 3440.92 2880.98 3451.04C2886.85 3461.16 2895.69 3466.5 2907.51 3467.07C2919.33 3467.64 2933.84 3463.76 2951.05 3455.44C2955.21 3461.68 2957.3 3468.49 2957.3 3475.86C2957.3 3485.89 2951.76 3492.6 2940.7 3496.01C2929.64 3499.41 2912.19 3501.11 2888.36 3501.11C2862.45 3501.11 2843.58 3495.82 2831.76 3485.23C2819.94 3474.63 2814.03 3454.87 2814.03 3425.93L2814.03 3359.27C2814.03 3322.95 2812.99 3287.78 2810.91 3253.73L2783.11 3253.73C2780.84 3246.92 2779.7 3240.3 2779.7 3233.87C2779.7 3229.15 2780.74 3225.69 2782.83 3223.52C2784.91 3221.34 2788.4 3220.26 2793.32 3220.26L2812.61 3220.26Z" fill-rule="evenodd"/>
</g>
<g fill="#ce2c2c" opacity="1" stroke="none">
<path clip-path="url(#TextBounds_3)" d="M893.076 2401.95C894.589 2375.66 895.345 2308.24 895.345 2199.68C895.345 2141.62 894.589 2101.9 893.076 2080.53C825.935 2083.37 788.015 2084.79 779.315 2084.79C770.994 2084.79 765.225 2083.46 762.01 2080.81C758.795 2078.17 757.187 2073.15 757.187 2065.78C757.187 2055.19 759.835 2043.65 765.131 2031.17C797.283 2039.68 843.902 2043.93 904.991 2043.93L1082.3 2043.93C1090.62 2043.93 1096.44 2045.31 1099.74 2048.05C1103.05 2050.79 1104.71 2055.75 1104.71 2062.94C1104.71 2076.18 1100.83 2088.76 1093.08 2100.67C1061.49 2087.24 1020.45 2080.53 969.956 2080.53L960.311 2080.53C958.797 2101.9 958.041 2142.75 958.041 2203.08C958.041 2309.37 958.797 2375.66 960.311 2401.95L1000.88 2401.95C1003.15 2407.63 1004.28 2413.11 1004.28 2418.41C1004.28 2423.13 1003.34 2426.44 1001.45 2428.34C999.554 2430.23 996.245 2431.17 991.517 2431.17L852.508 2431.17C850.049 2424.74 848.82 2418.78 848.82 2413.3C848.82 2409.33 849.813 2406.44 851.799 2404.65C853.784 2402.85 857.047 2401.95 861.586 2401.95L893.076 2401.95Z" fill-rule="evenodd"/>
<path clip-path="url(#TextBounds_3)" d="M903.856 2855.86C884.943 2855.86 870.569 2862.62 860.735 2876.14C850.9 2889.67 845.51 2910.8 844.564 2939.55L873.785 2939.55C904.802 2939.55 925.937 2938.93 937.19 2937.7C948.443 2936.47 954.968 2934.44 956.764 2931.6C958.561 2928.77 959.459 2923.47 959.459 2915.72C959.459 2896.99 954.731 2882.34 945.275 2871.75C935.818 2861.15 922.012 2855.86 903.856 2855.86ZM914.636 2817.84C949.814 2817.84 975.914 2826.17 992.935 2842.81C1009.96 2859.45 1018.47 2886.88 1018.47 2925.08C1018.47 2941.91 1015.44 2953.64 1009.39 2960.26C1003.34 2966.88 990.098 2970.19 969.672 2970.19L844.281 2970.19C844.659 3001.01 850.853 3025.22 862.863 3042.81C874.872 3060.4 896.102 3069.19 926.551 3069.19C954.92 3069.19 981.304 3061.82 1005.7 3047.07C1013.83 3055.2 1017.9 3063.8 1017.9 3072.88C1017.9 3085.55 1007.45 3094.44 986.552 3099.55C965.653 3104.66 942.06 3107.21 915.771 3107.21C867.354 3107.21 832.602 3096.95 811.514 3076.43C790.427 3055.91 779.883 3021.35 779.883 2972.74C779.883 2924.89 791.751 2887.11 815.486 2859.4C839.222 2831.7 872.272 2817.84 914.636 2817.84Z" fill-rule="evenodd"/>
<path clip-path="url(#TextBounds_3)" d="M794.067 3745.51C809.008 3724.33 834.824 3686.89 871.515 3633.17C847.874 3596.48 832.082 3572.37 824.139 3560.83C816.195 3549.3 809.86 3540.97 805.131 3535.87C800.403 3530.76 795.864 3527.59 791.514 3526.36C787.164 3525.13 782.152 3524.52 776.478 3524.52C774.02 3520.55 772.79 3515.44 772.79 3509.2C772.79 3502.39 776.951 3498.14 785.273 3496.43C793.595 3494.73 808.346 3493.88 829.529 3493.88C836.148 3493.88 842.815 3494.78 849.529 3496.58C856.243 3498.37 861.208 3501.82 864.423 3506.93C867.638 3512.04 873.028 3522.53 880.593 3538.42C888.158 3554.31 901.492 3577.48 920.594 3607.92C943.1 3574.26 958.419 3547.88 966.552 3528.77L953.502 3528.77C951.043 3523.29 949.814 3517.71 949.814 3512.04C949.814 3506.36 950.901 3502.39 953.076 3500.12C955.251 3497.85 958.892 3496.72 963.999 3496.72L1036.91 3496.72C1039.18 3502.01 1040.31 3507.69 1040.31 3513.74C1040.31 3519.6 1039.13 3523.57 1036.77 3525.65C1034.4 3527.73 1030.1 3528.77 1023.86 3528.77L1019.6 3528.77C996.528 3558.85 971.564 3594.21 944.707 3634.88C983.479 3694.26 1006.41 3727.55 1013.5 3734.73C1020.59 3741.92 1028.96 3745.51 1038.61 3745.51C1040.69 3749.11 1041.73 3753.55 1041.73 3758.85C1041.73 3765.66 1039.22 3770.01 1034.21 3771.9C1029.2 3773.79 1021.12 3774.74 1009.96 3774.74C990.287 3774.74 977.805 3774.22 972.509 3773.17C967.214 3772.13 962.864 3769.53 959.459 3765.37C956.055 3761.21 934.589 3726.13 895.061 3660.12C871.231 3696.25 855.345 3724.71 847.401 3745.51L866.976 3745.51C869.246 3750.43 870.38 3755.73 870.38 3761.4C870.38 3766.51 869.34 3770.01 867.26 3771.9C865.179 3773.79 861.208 3774.74 855.345 3774.74L773.642 3774.74C771.183 3768.68 769.954 3763.01 769.954 3757.71C769.954 3753.55 770.994 3750.48 773.074 3748.49C775.155 3746.51 778.559 3745.51 783.287 3745.51L794.067 3745.51Z" fill-rule="evenodd"/>
<path clip-path="url(#TextBounds_3)" d="M810.805 4168.5L833.784 4087.93C841.728 4090.39 848.489 4093.32 854.068 4096.72C859.647 4100.13 863.761 4104.15 866.409 4108.78C869.056 4113.42 870.38 4129.44 870.38 4156.87L870.38 4168.5L963.715 4168.5C965.984 4174.74 967.119 4181.36 967.119 4188.36C967.119 4193.84 966.079 4197.48 963.999 4199.28C961.918 4201.08 957.757 4201.97 951.516 4201.97L870.38 4201.97L870.38 4336.16C870.38 4368.12 873.312 4389.16 879.175 4399.28C885.038 4409.4 893.879 4414.74 905.7 4415.31C917.52 4415.88 932.036 4412 949.247 4403.68C953.407 4409.92 955.488 4416.73 955.488 4424.1C955.488 4434.13 949.956 4440.84 938.892 4444.25C927.828 4447.65 910.381 4449.35 886.551 4449.35C860.64 4449.35 841.775 4444.06 829.954 4433.47C818.134 4422.88 812.224 4403.11 812.224 4374.18L812.224 4307.51C812.224 4271.2 811.183 4236.02 809.103 4201.97L781.301 4201.97C779.032 4195.17 777.897 4188.55 777.897 4182.12C777.897 4177.39 778.937 4173.94 781.018 4171.76C783.098 4169.59 786.597 4168.5 791.514 4168.5L810.805 4168.5Z" fill-rule="evenodd"/>
</g>
<g fill="#ce2c2c" opacity="1" stroke="none">
<path clip-path="url(#TextBounds_4)" d="M2472.6 2544.8L2335.86 2544.8L2335.86 2932.04L2257.85 2932.04L2257.85 2544.8L2121.39 2544.8L2121.39 2487.49L2472.6 2487.49L2472.6 2544.8Z" fill-rule="evenodd"/>
<path clip-path="url(#TextBounds_4)" d="M2425.51 3671.9C2413.78 3684.39 2402.48 3694.41 2391.61 3701.98C2380.73 3709.54 2369.91 3715.36 2359.13 3719.42C2348.35 3723.49 2337.38 3726.18 2326.22 3727.51C2315.06 3728.83 2303.43 3729.49 2291.32 3729.49C2265.22 3729.49 2242.86 3724.95 2224.23 3715.88C2205.6 3706.8 2190.38 3694.69 2178.56 3679.56C2166.74 3664.43 2158.04 3647.03 2152.46 3627.36C2146.88 3607.7 2144.09 3587.27 2144.09 3566.09C2144.09 3545.66 2146.97 3526.13 2152.74 3507.5C2158.51 3488.88 2167.3 3472.47 2179.12 3458.28C2190.94 3444.1 2205.79 3432.75 2223.66 3424.24C2241.54 3415.73 2262.58 3411.48 2286.78 3411.48C2308.34 3411.48 2327.26 3414.41 2343.52 3420.27C2359.79 3426.13 2373.36 3434.55 2384.23 3445.52C2395.11 3456.49 2403.29 3469.77 2408.77 3485.38C2414.26 3500.98 2417 3518.43 2417 3537.72C2417 3545.09 2416.76 3552.71 2416.29 3560.56C2415.82 3568.4 2414.82 3576.58 2413.31 3585.09L2221.82 3585.09C2221.82 3593.98 2223.43 3603.72 2226.64 3614.31C2229.86 3624.91 2234.54 3634.88 2240.68 3644.24C2246.83 3653.61 2254.44 3661.41 2263.52 3667.65C2272.6 3673.89 2283 3677.01 2294.73 3677.01C2304.94 3677.01 2313.88 3676.25 2321.54 3674.74C2329.2 3673.23 2336.29 3670.77 2342.81 3667.36C2349.34 3663.96 2355.58 3659.47 2361.54 3653.89C2367.49 3648.31 2373.88 3641.36 2380.69 3633.04L2425.51 3671.9ZM2282.53 3466.8C2270.61 3466.8 2260.78 3468.88 2253.03 3473.04C2245.27 3477.2 2239.12 3482.68 2234.59 3489.49C2230.05 3496.3 2226.83 3504.05 2224.94 3512.75C2223.05 3521.45 2222.1 3530.44 2222.1 3539.7L2339.27 3539.7C2339.27 3531.76 2338.7 3523.49 2337.57 3514.88C2336.43 3506.28 2333.88 3498.43 2329.91 3491.33C2325.93 3484.24 2320.21 3478.38 2312.74 3473.75C2305.27 3469.11 2295.2 3466.8 2282.53 3466.8Z" fill-rule="evenodd"/>
<path clip-path="url(#TextBounds_4)" d="M2114.02 4513.33L2231.18 4356.74L2127.92 4206.95L2208.49 4206.95L2268.06 4315.03L2332.74 4206.95L2413.31 4206.95L2302.1 4359.86L2414.45 4513.33L2333.88 4513.33L2265.79 4401.56L2194.58 4513.33L2114.02 4513.33Z" fill-rule="evenodd"/>
<path clip-path="url(#TextBounds_4)" d="M2123.09 5012.91L2168.2 4997.59L2187.49 4918.44L2241.96 4918.44L2241.96 4997.59L2317.14 4997.59L2310.33 5050.36L2241.96 5050.36L2241.96 5206.67C2241.96 5215.37 2242.58 5222.66 2243.81 5228.52C2245.03 5234.38 2246.78 5239.11 2249.05 5242.7C2251.32 5246.3 2254.16 5248.85 2257.56 5250.36C2260.97 5251.88 2264.85 5252.63 2269.2 5252.63C2275.25 5252.63 2282.1 5251.92 2289.76 5250.5C2297.42 5249.09 2305.98 5246.58 2315.44 5242.99L2332.46 5279.02C2318.84 5289.42 2305.46 5297.17 2292.32 5302.28C2279.17 5307.38 2266.36 5309.94 2253.88 5309.94C2236.85 5309.94 2222.86 5307.72 2211.89 5303.27C2200.92 5298.83 2192.17 5292.49 2185.65 5284.26C2179.12 5276.04 2174.58 5266.06 2172.03 5254.33C2169.48 5242.61 2168.2 5229.46 2168.2 5214.9L2168.2 5050.36L2123.09 5050.36L2123.09 5012.91Z" fill-rule="evenodd"/>
</g>
<g fill="#ce2c2c" opacity="1" stroke="none">
<path clip-path="url(#TextBounds_5)" d="M1175.27 3002.51L1038.53 3002.51L1038.53 3389.75L960.519 3389.75L960.519 3002.51L824.063 3002.51L824.063 2945.2L1175.27 2945.2L1175.27 3002.51Z" fill-rule="evenodd"/>
<path clip-path="url(#TextBounds_5)" d="M1128.18 4129.61C1116.45 4142.1 1105.15 4152.12 1094.28 4159.69C1083.4 4167.25 1072.58 4173.07 1061.8 4177.13C1051.02 4181.2 1040.05 4183.89 1028.89 4185.22C1017.73 4186.54 1006.1 4187.2 993.995 4187.2C967.895 4187.2 945.531 4182.67 926.902 4173.59C908.272 4164.51 893.048 4152.4 881.227 4137.27C869.407 4122.14 860.707 4104.74 855.128 4085.08C849.548 4065.41 846.759 4044.98 846.759 4023.8C846.759 4003.37 849.643 3983.84 855.411 3965.22C861.18 3946.59 869.974 3930.18 881.795 3916C893.615 3901.81 908.462 3890.46 926.334 3881.95C944.207 3873.44 965.247 3869.19 989.455 3869.19C1011.02 3869.19 1029.93 3872.12 1046.19 3877.98C1062.46 3883.84 1076.03 3892.26 1086.9 3903.23C1097.78 3914.2 1105.96 3927.48 1111.44 3943.09C1116.93 3958.69 1119.67 3976.14 1119.67 3995.43C1119.67 4002.8 1119.43 4010.42 1118.96 4018.27C1118.49 4026.11 1117.49 4034.29 1115.98 4042.81L924.49 4042.81C924.49 4051.69 926.098 4061.43 929.313 4072.03C932.528 4082.62 937.209 4092.59 943.356 4101.96C949.502 4111.32 957.115 4119.12 966.193 4125.36C975.271 4131.6 985.673 4134.72 997.399 4134.72C1007.61 4134.72 1016.55 4133.96 1024.21 4132.45C1031.87 4130.94 1038.96 4128.48 1045.48 4125.08C1052.01 4121.67 1058.25 4117.18 1064.21 4111.6C1070.17 4106.02 1076.55 4099.07 1083.36 4090.75L1128.18 4129.61ZM985.2 3924.51C973.285 3924.51 963.45 3926.59 955.696 3930.75C947.942 3934.91 941.795 3940.39 937.256 3947.2C932.717 3954.01 929.502 3961.76 927.611 3970.46C925.719 3979.16 924.774 3988.15 924.774 3997.41L1041.94 3997.41C1041.94 3989.47 1041.37 3981.2 1040.24 3972.59C1039.1 3963.99 1036.55 3956.14 1032.58 3949.05C1028.6 3941.95 1022.88 3936.09 1015.41 3931.46C1007.94 3926.82 997.872 3924.51 985.2 3924.51Z" fill-rule="evenodd"/>
<path clip-path="url(#TextBounds_5)" d="M816.687 4971.04L933.852 4814.45L830.588 4664.66L911.157 4664.66L970.732 4772.74L1035.41 4664.66L1115.98 4664.66L1004.77 4817.57L1117.12 4971.04L1036.55 4971.04L968.462 4859.27L897.256 4971.04L816.687 4971.04Z" fill-rule="evenodd"/>
<path clip-path="url(#TextBounds_5)" d="M825.766 5470.62L870.872 5455.3L890.163 5376.15L944.632 5376.15L944.632 5455.3L1019.81 5455.3L1013 5508.07L944.632 5508.07L944.632 5664.39C944.632 5673.09 945.247 5680.37 946.476 5686.23C947.706 5692.09 949.455 5696.82 951.725 5700.41C953.994 5704.01 956.831 5706.56 960.235 5708.07C963.64 5709.59 967.517 5710.34 971.867 5710.34C977.919 5710.34 984.775 5709.63 992.434 5708.22C1000.09 5706.8 1008.65 5704.29 1018.11 5700.7L1035.13 5736.73C1021.51 5747.13 1008.13 5754.88 994.987 5759.99C981.843 5765.1 969.03 5767.65 956.547 5767.65C939.526 5767.65 925.53 5765.43 914.561 5760.98C903.592 5756.54 894.844 5750.2 888.319 5741.98C881.795 5733.75 877.256 5723.77 874.702 5712.05C872.149 5700.32 870.872 5687.18 870.872 5672.61L870.872 5508.07L825.766 5508.07L825.766 5470.62Z" fill-rule="evenodd"/>
</g>
<g fill="#ce2c2c" opacity="1" stroke="none">
<path clip-path="url(#TextBounds_6)" d="M2735.45 1581.57C2737.22 1585.7 2738.77 1591.24 2740.1 1598.18C2741.43 1605.12 2742.1 1610.81 2742.1 1615.24C2742.1 1630 2738.77 1643.59 2732.13 1655.99C2725.48 1668.4 2716.85 1679.03 2706.21 1687.89C2695.58 1696.75 2683.47 1703.69 2669.89 1708.71C2656.3 1713.73 2642.57 1716.24 2628.69 1716.24C2619.53 1716.24 2610.38 1714.76 2601.22 1711.81C2592.07 1708.86 2583.8 1704.43 2576.41 1698.52C2569.03 1692.61 2563.05 1685.23 2558.47 1676.37C2553.9 1667.51 2551.61 1657.17 2551.61 1645.36C2551.61 1623.8 2559.29 1604.09 2574.64 1586.22C2590 1568.35 2611.41 1553 2638.88 1540.15C2666.34 1527.3 2699.27 1517.26 2737.67 1510.02C2776.06 1502.79 2818.29 1499.17 2864.36 1499.17C2876.77 1499.17 2889.47 1499.39 2902.46 1499.84C2915.46 1500.28 2928.08 1500.72 2940.34 1501.16C2952.6 1501.61 2964.19 1502.05 2975.11 1502.49C2986.04 1502.94 2995.64 1503.31 3003.91 1503.6C3018.68 1504.19 3029.31 1505.96 3035.81 1508.92C3042.3 1511.87 3045.55 1517.78 3045.55 1526.64C3045.55 1535.2 3041.34 1541.48 3032.93 1545.46C3024.51 1549.45 3011.29 1551.44 2993.28 1551.44C2984.12 1551.44 2975.78 1551.08 2968.25 1550.34C2960.72 1549.6 2953.11 1548.79 2945.43 1547.9C2932.44 1551.44 2920.4 1556.47 2909.33 1562.96C2898.25 1569.46 2887.77 1577.73 2877.88 1587.77C2867.98 1597.81 2858.46 1609.85 2849.3 1623.88C2840.15 1637.9 2830.84 1654.22 2821.39 1672.83C2810.17 1695.27 2797.77 1715.87 2784.18 1734.63C2770.6 1753.38 2755.24 1769.55 2738.11 1783.13C2720.98 1796.72 2701.93 1807.28 2680.96 1814.81C2659.99 1822.34 2636.37 1826.1 2610.08 1826.1C2598.56 1826.1 2587.71 1824.85 2577.52 1822.34C2567.33 1819.83 2558.4 1816.14 2550.72 1811.26C2543.04 1806.39 2536.99 1800.26 2532.56 1792.88C2528.13 1785.5 2525.91 1777.08 2525.91 1767.63C2525.91 1763.2 2526.8 1758.99 2528.57 1755C2530.34 1751.02 2532.63 1747.47 2535.44 1744.37C2538.24 1741.27 2541.64 1738.76 2545.63 1736.84C2549.61 1734.92 2553.82 1733.96 2558.25 1733.96C2565.93 1733.96 2572.5 1736.25 2577.97 1740.83C2583.43 1745.41 2586.16 1751.68 2586.16 1759.65C2586.16 1766.45 2584.46 1772.21 2581.07 1776.93C2577.67 1781.66 2572.87 1785.05 2566.67 1787.12C2568.44 1799.23 2573.39 1807.87 2581.51 1813.04C2589.63 1818.2 2599.3 1820.79 2610.53 1820.79C2623.82 1820.79 2635.92 1818.43 2646.85 1813.7C2657.78 1808.98 2667.89 1802.48 2677.2 1794.21C2686.5 1785.94 2695.21 1776.27 2703.33 1765.19C2711.46 1754.12 2719.21 1742.38 2726.59 1729.97C2733.97 1717.57 2741.28 1704.8 2748.52 1691.65C2755.76 1678.51 2763.21 1665.59 2770.89 1652.89C2780.34 1637.53 2790.83 1624.17 2802.34 1612.8C2813.86 1601.43 2826.27 1591.54 2839.56 1583.12C2852.85 1574.7 2866.87 1567.61 2881.64 1561.86C2896.41 1556.1 2911.62 1551.15 2927.27 1547.01L2927.27 1546.13C2920.18 1545.83 2912.5 1545.39 2904.23 1544.8C2895.97 1544.21 2886.44 1543.62 2875.66 1543.03C2864.88 1542.44 2852.63 1541.92 2838.89 1541.48C2825.16 1541.03 2809.14 1541.11 2790.83 1541.7C2781.67 1541.7 2769.56 1542.07 2754.5 1542.81C2739.44 1543.54 2723.34 1545.24 2706.21 1547.9C2689.08 1550.56 2671.73 1554.18 2654.16 1558.75C2636.59 1563.33 2620.71 1569.46 2606.54 1577.14C2592.36 1584.82 2580.84 1594.19 2571.98 1605.27C2563.12 1616.34 2558.69 1629.71 2558.69 1645.36C2558.69 1654.22 2560.91 1661.68 2565.34 1667.73C2569.77 1673.79 2575.45 1678.81 2582.4 1682.79C2589.34 1686.78 2597.16 1689.66 2605.87 1691.43C2614.59 1693.2 2623.37 1694.09 2632.23 1694.09C2644.64 1694.09 2657.04 1691.88 2669.44 1687.45C2681.85 1683.02 2693 1677.11 2702.89 1669.73C2712.78 1662.34 2720.91 1653.85 2727.26 1644.25C2733.61 1634.66 2736.78 1624.69 2736.78 1614.35C2736.78 1609.33 2736.26 1604.09 2735.23 1598.62C2734.2 1593.16 2732.65 1587.92 2730.58 1582.9L2735.45 1581.57Z" fill-rule="evenodd"/>
<path clip-path="url(#TextBounds_6)" d="M2712.86 2263.79C2706.07 2273.53 2698.46 2283.35 2690.04 2293.25C2681.63 2303.14 2672.1 2313.26 2661.47 2323.59C2641.09 2343.09 2621.31 2357.85 2602.11 2367.89C2582.91 2377.94 2561.5 2382.96 2537.87 2382.96C2517.5 2382.96 2501.99 2378.23 2491.36 2368.78C2480.73 2359.33 2475.41 2345.6 2475.41 2327.58C2475.41 2311.93 2479.84 2297.16 2488.7 2283.28C2497.56 2269.4 2508.71 2257.29 2522.15 2246.95C2535.58 2236.62 2550.2 2228.35 2566 2222.15C2581.8 2215.94 2596.79 2212.84 2610.97 2212.84C2625.14 2212.84 2636.81 2215.13 2645.97 2219.71C2655.12 2224.29 2659.7 2231.75 2659.7 2242.08C2659.7 2252.42 2654.68 2261.43 2644.64 2269.1C2634.6 2276.78 2622.71 2283.35 2608.98 2288.82C2595.24 2294.28 2581.44 2298.71 2567.55 2302.11C2553.67 2305.5 2542.75 2308.09 2534.77 2309.86C2534.18 2312.81 2533.74 2315.77 2533.44 2318.72C2533.15 2321.67 2533 2324.63 2533 2327.58C2533 2332.9 2533.59 2338.14 2534.77 2343.31C2535.95 2348.48 2537.95 2352.98 2540.75 2356.82C2543.56 2360.66 2547.25 2363.76 2551.83 2366.12C2556.41 2368.48 2562.09 2369.67 2568.88 2369.67C2582.76 2369.67 2597.68 2364.57 2613.63 2354.38C2629.57 2344.19 2645.67 2331.42 2661.91 2316.06C2672.25 2306.02 2681.33 2296.28 2689.16 2286.82C2696.98 2277.37 2703.56 2268.81 2708.87 2261.13L2712.86 2263.79ZM2615.4 2230.56C2615.4 2222.29 2611.26 2218.16 2602.99 2218.16C2596.5 2218.16 2589.48 2221.48 2581.95 2228.13C2574.42 2234.77 2567.48 2242.75 2561.13 2252.05C2554.78 2261.35 2549.24 2270.88 2544.52 2280.62C2539.79 2290.37 2536.84 2298.49 2535.66 2304.99C2548.06 2302.33 2559.21 2298.27 2569.11 2292.81C2579 2287.34 2587.42 2281.21 2594.36 2274.42C2601.3 2267.63 2606.54 2260.39 2610.08 2252.71C2613.63 2245.04 2615.4 2237.65 2615.4 2230.56Z" fill-rule="evenodd"/>
<path clip-path="url(#TextBounds_6)" d="M2768.68 2821.53C2760.41 2832.75 2750.88 2845.3 2740.1 2859.18C2729.32 2873.06 2717.51 2886.13 2704.66 2898.39C2691.82 2910.64 2678.01 2920.91 2663.24 2929.17C2648.48 2937.44 2632.82 2941.58 2616.28 2941.58C2599.45 2941.58 2587.42 2937.96 2580.18 2930.73C2572.94 2923.49 2569.03 2912.78 2568.44 2898.61L2567.55 2897.72C2563.42 2903.92 2558.03 2909.68 2551.39 2915C2544.74 2920.31 2537.5 2924.97 2529.68 2928.95C2521.85 2932.94 2513.66 2936.04 2505.09 2938.26C2496.53 2940.47 2487.96 2941.58 2479.4 2941.58C2473.49 2941.58 2467.81 2940.77 2462.34 2939.14C2456.88 2937.52 2452.01 2935.01 2447.72 2931.61C2443.44 2928.22 2440.04 2923.93 2437.53 2918.76C2435.02 2913.6 2433.77 2907.47 2433.77 2900.38C2433.77 2895.95 2434.51 2891.67 2435.98 2887.53C2437.46 2883.4 2439.53 2879.71 2442.19 2876.46C2444.84 2873.21 2448.09 2870.55 2451.93 2868.48C2455.77 2866.42 2460.05 2865.38 2464.78 2865.38C2470.98 2865.38 2476.37 2867.38 2480.95 2871.36C2485.53 2875.35 2487.81 2880.59 2487.81 2887.09C2487.81 2893 2485.97 2897.8 2482.28 2901.49C2478.59 2905.18 2474.23 2907.02 2469.21 2907.02C2467.73 2907.02 2466.4 2907.02 2465.22 2907.02C2463.74 2907.02 2462.12 2906.73 2460.35 2906.14C2459.76 2907.62 2459.31 2909.31 2459.02 2911.23C2458.72 2913.15 2458.58 2915 2458.58 2916.77C2458.58 2922.68 2460.5 2927.4 2464.34 2930.95C2468.17 2934.49 2473.34 2936.26 2479.84 2936.26C2493.13 2936.26 2505.76 2931.91 2517.72 2923.19C2529.68 2914.48 2540.24 2903.7 2549.39 2890.86C2558.55 2878.01 2565.78 2864.05 2571.1 2848.99C2576.41 2833.93 2579.07 2820.2 2579.07 2807.79C2579.07 2802.48 2577.67 2798.19 2574.86 2794.95C2572.06 2791.7 2568.15 2790.07 2563.12 2790.07C2558.99 2790.07 2554.86 2791.55 2550.72 2794.5C2546.59 2797.46 2542.53 2801 2538.54 2805.13C2534.55 2809.27 2530.71 2813.55 2527.02 2817.98C2523.33 2822.41 2520.01 2826.25 2517.05 2829.5L2513.51 2826.4C2518.23 2820.49 2523.4 2814.29 2529.01 2807.79C2534.62 2801.3 2540.46 2795.39 2546.51 2790.07C2552.57 2784.76 2558.92 2780.33 2565.56 2776.78C2572.21 2773.24 2578.78 2771.47 2585.27 2771.47C2591.48 2771.47 2596.87 2772.72 2601.44 2775.23C2606.02 2777.74 2609.86 2781.14 2612.96 2785.42C2616.06 2789.7 2618.57 2794.43 2620.49 2799.6C2622.41 2804.77 2623.67 2810.01 2624.26 2815.32C2635.78 2804.99 2647.74 2795.98 2660.14 2788.3C2672.55 2780.62 2686.28 2776.78 2701.34 2776.78C2712.56 2776.78 2721.13 2779.15 2727.03 2783.87C2732.94 2788.6 2735.89 2794.8 2735.89 2802.48C2735.89 2811.93 2732.87 2819.68 2726.81 2825.73C2720.76 2831.79 2712.71 2834.82 2702.67 2834.82C2699.42 2834.82 2696.47 2834.52 2693.81 2833.93C2691.15 2833.34 2689.08 2832.45 2687.61 2831.27C2690.86 2826.84 2693.22 2821.3 2694.7 2814.66C2696.17 2808.01 2696.91 2802.03 2696.91 2796.72C2696.91 2791.7 2696.25 2788.01 2694.92 2785.64C2693.59 2783.28 2691.15 2782.1 2687.61 2782.1C2681.41 2782.1 2674.1 2785.79 2665.68 2793.17C2657.26 2800.56 2649.21 2809.79 2641.54 2820.86C2633.86 2831.94 2627.29 2844.05 2621.82 2857.19C2616.36 2870.33 2613.63 2882.66 2613.63 2894.18C2613.63 2904.51 2616.14 2912.49 2621.16 2918.1C2626.18 2923.71 2632.68 2926.52 2640.65 2926.52C2647.74 2926.52 2655.19 2924.67 2663.02 2920.98C2670.85 2917.29 2678.75 2912.34 2686.72 2906.14C2694.7 2899.94 2702.6 2893 2710.42 2885.32C2718.25 2877.64 2725.56 2869.89 2732.35 2862.06C2739.14 2854.23 2745.42 2846.56 2751.18 2839.02C2756.94 2831.49 2761.59 2825.07 2765.13 2819.75L2768.68 2821.53Z" fill-rule="evenodd"/>
<path clip-path="url(#TextBounds_6)" d="M2490.47 3346.04L2493.57 3338.95L2530.34 3338.95L2568 3274.71L2629.57 3272.5L2589.7 3338.95L2650.4 3338.95L2646.85 3346.04L2585.72 3346.04C2581.58 3353.13 2575.9 3362.43 2568.66 3373.95C2561.43 3385.46 2554.26 3397.43 2547.18 3409.83C2540.09 3422.23 2533.89 3434.19 2528.57 3445.71C2523.25 3457.23 2520.6 3466.68 2520.6 3474.06C2520.6 3479.09 2522 3482.78 2524.81 3485.14C2527.61 3487.5 2531.52 3488.68 2536.54 3488.68C2544.22 3488.68 2552.34 3486.54 2560.91 3482.26C2569.47 3477.98 2578.11 3472.44 2586.83 3465.65C2595.54 3458.86 2603.95 3451.25 2612.08 3442.83C2620.2 3434.42 2627.88 3426.07 2635.11 3417.8C2642.35 3409.53 2648.92 3401.78 2654.83 3394.55C2660.73 3387.31 2665.46 3381.48 2669 3377.05L2672.55 3378.82C2662.5 3390.63 2651.87 3403.63 2640.65 3417.8C2629.43 3431.98 2617.32 3445.2 2604.32 3457.45C2591.33 3469.71 2577.3 3479.9 2562.24 3488.02C2547.18 3496.14 2530.79 3500.2 2513.07 3500.2C2499.48 3500.2 2489.37 3496.58 2482.72 3489.35C2476.08 3482.11 2472.75 3472.74 2472.75 3461.22C2472.75 3455.31 2473.56 3449.48 2475.19 3443.72C2476.81 3437.96 2479.69 3430.87 2483.83 3422.46C2487.96 3414.04 2493.43 3403.78 2500.22 3391.67C2507.01 3379.56 2515.72 3364.35 2526.36 3346.04L2490.47 3346.04Z" fill-rule="evenodd"/>
</g>
</g>
</svg>
